<svg xmlns="http://www.w3.org/2000/svg" version="1.1" xmlns:xlink="http://www.w3.org/1999/xlink" xmlns:svgjs="http://svgjs.com/svgjs" width="1000" height="1000"><rect width="1000" height="1000" rx="100" ry="100" fill="#722097"></rect><g transform="matrix(1,0,0,1,0,0)"><svg xmlns="http://www.w3.org/2000/svg" version="1.1" xmlns:xlink="http://www.w3.org/1999/xlink" xmlns:svgjs="http://svgjs.com/svgjs" width="160px" height="93px"><svg xmlns="http://www.w3.org/2000/svg" version="1.1" width="160px" height="93px" style="shape-rendering:geometricPrecision; text-rendering:geometricPrecision; image-rendering:optimizeQuality; fill-rule:evenodd; clip-rule:evenodd" xmlns:xlink="http://www.w3.org/1999/xlink">
<g><path style="opacity:0.017" fill="#5b23b2" d="M 79.5,1.5 C 80.9473,0.114844 81.9473,0.448177 82.5,2.5C 81.609,1.89022 80.609,1.55688 79.5,1.5 Z"></path></g>
<g><path style="opacity:0.997" fill="#f1ebf8" d="M 79.5,1.5 C 80.609,1.55688 81.609,1.89022 82.5,2.5C 82.5,2.83333 82.5,3.16667 82.5,3.5C 82.0254,6.08209 82.6921,8.08209 84.5,9.5C 86.5648,9.48285 88.5648,9.14952 90.5,8.5C 92.4341,7.88972 94.1007,6.88972 95.5,5.5C 99.1817,5.3347 102.848,5.50137 106.5,6C 107.71,7.0391 108.71,8.20577 109.5,9.5C 109.5,21.5 109.5,33.5 109.5,45.5C 108.942,46.7899 107.942,47.6232 106.5,48C 103.242,48.2117 100.076,48.7117 97,49.5C 96.2828,48.9558 95.7828,48.2891 95.5,47.5C 95.0269,46.0937 94.0269,45.427 92.5,45.5C 91.6373,43.5786 90.9707,41.5786 90.5,39.5C 90.2291,37.6203 90.8958,36.287 92.5,35.5C 94.2528,38.1556 95.9195,40.9889 97.5,44C 100.669,44.9782 103.503,44.4782 106,42.5C 106.667,32.1667 106.667,21.8333 106,11.5C 100.989,8.70357 96.1557,9.0369 91.5,12.5C 87.5,12.5 83.5,12.5 79.5,12.5C 79.5,9.16667 79.5,5.83333 79.5,2.5C 79.5,2.16667 79.5,1.83333 79.5,1.5 Z"></path></g>
<g><path style="opacity:0.096" fill="#7141bc" d="M 82.5,3.5 C 83.2852,5.37358 83.9518,7.37358 84.5,9.5C 82.6921,8.08209 82.0254,6.08209 82.5,3.5 Z"></path></g>
<g><path style="opacity:0.741" fill="#aa87d6" d="M 95.5,5.5 C 94.1007,6.88972 92.4341,7.88972 90.5,8.5C 91.7382,6.06328 93.4048,5.06328 95.5,5.5 Z"></path></g>
<g><path style="opacity:0.998" fill="#e6daf2" d="M 71.5,11.5 C 71.5,12.5 71.5,13.5 71.5,14.5C 70.1667,14.5 68.8333,14.5 67.5,14.5C 64.1032,11.6076 60.1032,10.7742 55.5,12C 54.7069,13.0852 54.0402,14.2519 53.5,15.5C 54.0068,24.7901 54.1735,34.1235 54,43.5C 54.3742,44.4162 54.8742,45.2496 55.5,46C 57.8333,46.6667 60.1667,46.6667 62.5,46C 64.2285,40.8311 67.0618,36.3311 71,32.5C 71.3826,33.056 71.8826,33.3893 72.5,33.5C 76.1667,33.5 79.8333,33.5 83.5,33.5C 83.5,34.5 83.5,35.5 83.5,36.5C 79.9186,37.2599 76.2519,37.7599 72.5,38C 70.0144,41.1371 68.1811,44.6371 67,48.5C 62.7288,50.4956 58.2288,50.9956 53.5,50C 51.5743,49.5776 50.5743,48.4109 50.5,46.5C 50.5,34.8333 50.5,23.1667 50.5,11.5C 50.5743,9.5891 51.5743,8.42244 53.5,8C 57.8333,7.33333 62.1667,7.33333 66.5,8C 68.3464,9.02978 70.0131,10.1964 71.5,11.5 Z"></path></g>
<g><path style="opacity:0.384" fill="#7342bc" d="M 71.5,11.5 C 73.6885,12.6518 73.6885,14.1518 71.5,16C 69.6476,16.7726 68.3143,16.2726 67.5,14.5C 68.8333,14.5 70.1667,14.5 71.5,14.5C 71.5,13.5 71.5,12.5 71.5,11.5 Z"></path></g>
<g><path style="opacity:0.644" fill="#9f7cd1" d="M 79.5,2.5 C 79.5,5.83333 79.5,9.16667 79.5,12.5C 83.5,12.5 87.5,12.5 91.5,12.5C 90.7387,13.3909 89.7387,14.0576 88.5,14.5C 85.1696,13.9062 81.8363,13.2396 78.5,12.5C 77.1042,8.9046 77.4375,5.57126 79.5,2.5 Z"></path></g>
<g><path style="opacity:0.722" fill="#a480d3" d="M 109.5,9.5 C 110.117,9.61071 110.617,9.94404 111,10.5C 111.667,21.5 111.667,32.5 111,43.5C 110.722,44.4158 110.222,45.0825 109.5,45.5C 109.5,33.5 109.5,21.5 109.5,9.5 Z"></path></g>
<g><path style="opacity:0.647" fill="#ad90d8" d="M 50.5,11.5 C 50.5,23.1667 50.5,34.8333 50.5,46.5C 49.5222,46.189 48.8555,45.5223 48.5,44.5C 49.8333,34.5 49.8333,24.5 48.5,14.5C 48.9424,13.2613 49.6091,12.2613 50.5,11.5 Z"></path></g>
<g><path style="opacity:0.047" fill="#6416af" d="M 62.5,18.5 C 64.0348,17.2121 65.7015,17.2121 67.5,18.5C 67.3764,19.1067 67.0431,19.44 66.5,19.5C 65.2921,18.7659 63.9587,18.4326 62.5,18.5 Z"></path></g>
<g><path style="opacity:0.911" fill="#ed07b6" d="M 62.5,18.5 C 63.9587,18.4326 65.2921,18.7659 66.5,19.5C 66.5,20.1667 66.5,20.8333 66.5,21.5C 67.2625,22.2679 68.2625,22.7679 69.5,23C 70.2524,23.6708 70.5858,24.5041 70.5,25.5C 69.2921,26.2341 67.9587,26.5674 66.5,26.5C 66.5674,27.9587 66.2341,29.2921 65.5,30.5C 63.1278,32.1478 61.7944,31.4811 61.5,28.5C 62.0431,28.44 62.3764,28.1067 62.5,27.5C 61.675,26.6143 60.675,26.281 59.5,26.5C 58.4331,24.1205 59.4331,23.1205 62.5,23.5C 62.5,21.8333 62.5,20.1667 62.5,18.5 Z"></path></g>
<g><path style="opacity:0.916" fill="#4163c2" d="M 91.5,17.5 C 99.5581,17.3729 102.391,21.0396 100,28.5C 95.2032,32.8023 91.2032,32.1356 88,26.5C 87.4807,22.8679 88.6474,19.8679 91.5,17.5 Z M 93.5,22.5 C 95.5,22.5 96.5,23.5 96.5,25.5C 95.5,25.5 94.5,25.5 93.5,25.5C 93.5,24.5 93.5,23.5 93.5,22.5 Z"></path></g>
<g><path style="opacity:0.053" fill="#5a17af" d="M 66.5,21.5 C 68.1667,21.5 69.8333,21.5 71.5,21.5C 71.7678,23.099 71.4345,24.4324 70.5,25.5C 70.5858,24.5041 70.2524,23.6708 69.5,23C 68.2625,22.7679 67.2625,22.2679 66.5,21.5 Z"></path></g>
<g><path style="opacity:0.78" fill="#9c12b2" d="M 62.5,18.5 C 62.5,20.1667 62.5,21.8333 62.5,23.5C 59.4331,23.1205 58.4331,24.1205 59.5,26.5C 59.19,27.7383 58.69,27.7383 58,26.5C 57.3333,25.1667 57.3333,23.8333 58,22.5C 59,21.1667 60,21.1667 61,22.5C 61.21,20.9419 61.71,19.6085 62.5,18.5 Z"></path></g>
<g><path style="opacity:0.053" fill="#521fb0" d="M 93.5,22.5 C 93.5,23.5 93.5,24.5 93.5,25.5C 94.5,25.5 95.5,25.5 96.5,25.5C 96.5,23.5 95.5,22.5 93.5,22.5 Z"></path></g>
<g><path style="opacity:0.064" fill="#5917af" d="M 70.5,25.5 C 68.7938,27.0727 67.6272,29.0727 67,31.5C 66.6174,30.944 66.1174,30.6107 65.5,30.5C 66.2341,29.2921 66.5674,27.9587 66.5,26.5C 67.9587,26.5674 69.2921,26.2341 70.5,25.5 Z"></path></g>
<g><path style="opacity:0.02" fill="#5418af" d="M 61.5,28.5 C 60.8333,27.1667 60.8333,27.1667 61.5,28.5 Z"></path></g>
<g><path style="opacity:0.678" fill="#9068ca" d="M 83.5,36.5 C 83.5,35.5 83.5,34.5 83.5,33.5C 79.8333,33.5 76.1667,33.5 72.5,33.5C 73.1342,32.0532 74.3009,31.3866 76,31.5C 78.4075,32.5357 80.7409,32.5357 83,31.5C 85.8857,33.1702 86.0524,34.8369 83.5,36.5 Z"></path></g>
<g><path style="opacity:0.259" fill="#713fbb" d="M 92.5,35.5 C 90.8958,36.287 90.2291,37.6203 90.5,39.5C 87.7546,37.4952 88.0879,35.8285 91.5,34.5C 92.1067,34.6236 92.44,34.9569 92.5,35.5 Z"></path></g>
<g><path style="opacity:0.765" fill="#a682d4" d="M 92.5,45.5 C 94.0269,45.427 95.0269,46.0937 95.5,47.5C 93.9731,47.573 92.9731,46.9063 92.5,45.5 Z"></path></g>
<g><path style="opacity:0.999" fill="#f4eef9" d="M 49.5,62.5 C 51.5,62.5 53.5,62.5 55.5,62.5C 55.3343,66.8461 55.501,71.1794 56,75.5C 56.5133,74.4734 57.0133,73.4734 57.5,72.5C 57.5,72.1667 57.5,71.8333 57.5,71.5C 58.5,71.1667 59.1667,70.5 59.5,69.5C 61.2646,68.5386 63.2646,68.2053 65.5,68.5C 64.2074,72.0857 63.2074,75.7524 62.5,79.5C 63.1103,81.4341 64.1103,83.1007 65.5,84.5C 65.5,84.8333 65.5,85.1667 65.5,85.5C 65.8333,86.1667 66.1667,86.8333 66.5,87.5C 64.1667,87.5 61.8333,87.5 59.5,87.5C 59.0679,86.2905 58.4013,85.2905 57.5,84.5C 57.5,84.1667 57.5,83.8333 57.5,83.5C 57.0133,82.5266 56.5133,81.5266 56,80.5C 55.5034,82.8098 55.3367,85.1432 55.5,87.5C 53.3888,88.7416 51.3888,88.7416 49.5,87.5C 49.5,79.1667 49.5,70.8333 49.5,62.5 Z"></path></g>
<g><path style="opacity:0.043" fill="#6e3bba" d="M 49.5,62.5 C 49.5,70.8333 49.5,79.1667 49.5,87.5C 48.5,87.5 47.5,87.5 46.5,87.5C 46.5,86.8333 46.8333,86.5 47.5,86.5C 48.8333,85.1667 48.8333,83.8333 47.5,82.5C 46.791,81.596 45.791,81.2627 44.5,81.5C 44.5,78.8333 44.5,76.1667 44.5,73.5C 45.4682,75.6074 45.8016,77.9407 45.5,80.5C 46.5,80.5 47.5,80.5 48.5,80.5C 48.1771,74.31 48.5104,68.31 49.5,62.5 Z"></path></g>
<g><path style="opacity:0.097" fill="#6835b8" d="M 59.5,69.5 C 59.1667,70.5 58.5,71.1667 57.5,71.5C 56.1667,71.8333 56.1667,72.1667 57.5,72.5C 57.0133,73.4734 56.5133,74.4734 56,75.5C 55.501,71.1794 55.3343,66.8461 55.5,62.5C 53.5,62.5 51.5,62.5 49.5,62.5C 49.8656,61.3054 50.699,60.6387 52,60.5C 53.4397,61.1476 54.9397,61.4809 56.5,61.5C 56.3367,63.8568 56.5034,66.1902 57,68.5C 57.6708,69.2524 58.5041,69.5858 59.5,69.5 Z"></path></g>
<g><path style="opacity:0.999" fill="#f0e9f7" d="M 121.5,62.5 C 121.5,62.8333 121.5,63.1667 121.5,63.5C 120.167,63.5 119.5,64.1667 119.5,65.5C 119.5,66.1667 119.5,66.8333 119.5,67.5C 119.5,67.8333 119.5,68.1667 119.5,68.5C 118.662,68.8417 118.328,69.5084 118.5,70.5C 118.567,71.9587 118.234,73.2921 117.5,74.5C 116.89,75.391 116.557,76.391 116.5,77.5C 116.561,81.0487 115.727,84.3821 114,87.5C 112.044,87.7845 109.877,87.7845 107.5,87.5C 106.596,86.791 106.263,85.791 106.5,84.5C 107.823,80.196 109.156,75.8626 110.5,71.5C 110.457,70.5836 110.124,69.9169 109.5,69.5C 107.379,69.6747 105.379,69.3414 103.5,68.5C 103.5,66.5 103.5,64.5 103.5,62.5C 109.5,62.5 115.5,62.5 121.5,62.5 Z"></path></g>
<g><path style="opacity:0.999" fill="#f0e9f8" d="M 121.5,62.5 C 126.511,62.3341 131.511,62.5007 136.5,63C 137.779,65.4976 137.779,67.9976 136.5,70.5C 134.926,73.9065 133.926,77.5732 133.5,81.5C 133.064,83.7463 132.397,85.9129 131.5,88C 129.249,87.7932 126.915,87.6265 124.5,87.5C 123.662,87.1583 123.328,86.4916 123.5,85.5C 125.029,81.5786 126.363,77.5786 127.5,73.5C 129.138,72.2954 129.471,70.9621 128.5,69.5C 127.833,69.5 127.5,69.8333 127.5,70.5C 125.379,70.6747 123.379,70.3414 121.5,69.5C 121.5,67.8333 121.5,66.1667 121.5,64.5C 121.5,64.1667 121.5,63.8333 121.5,63.5C 121.5,63.1667 121.5,62.8333 121.5,62.5 Z"></path></g>
<g><path style="opacity:0.999" fill="#ebe2f5" d="M 153.5,62.5 C 154.942,63.8195 155.608,65.4862 155.5,67.5C 155.167,68.1667 154.833,68.8333 154.5,69.5C 153.542,71.3024 152.875,73.3024 152.5,75.5C 151.982,79.5472 151.148,83.5472 150,87.5C 147.646,87.8916 145.146,87.8916 142.5,87.5C 142.5,86.1667 142.5,84.8333 142.5,83.5C 143.707,79.2138 144.707,74.8805 145.5,70.5C 139.604,71.1518 137.27,68.4852 138.5,62.5C 143.5,62.5 148.5,62.5 153.5,62.5 Z"></path></g>
<g><path style="opacity:0.039" fill="#591fb1" d="M 153.5,62.5 C 154.496,62.4142 155.329,62.7476 156,63.5C 156.765,65.0657 156.598,66.3991 155.5,67.5C 155.608,65.4862 154.942,63.8195 153.5,62.5 Z"></path></g>
<g><path style="opacity:0.133" fill="#713fbb" d="M 121.5,64.5 C 121.5,66.1667 121.5,67.8333 121.5,69.5C 120.391,69.5569 119.391,69.8902 118.5,70.5C 118.328,69.5084 118.662,68.8417 119.5,68.5C 120.833,68.1667 120.833,67.8333 119.5,67.5C 119.5,66.8333 119.5,66.1667 119.5,65.5C 120.167,65.1667 120.833,64.8333 121.5,64.5 Z"></path></g>
<g><path style="opacity:1" fill="#f4eff9" d="M 27.5,72.5 C 27.5,77.5 27.5,82.5 27.5,87.5C 26.4721,87.9258 25.1388,87.9258 23.5,87.5C 22.8333,83.5 22.1667,79.5 21.5,75.5C 20.5084,75.3284 19.8417,75.6618 19.5,76.5C 19.5,80.1667 19.5,83.8333 19.5,87.5C 17.8333,87.5 16.1667,87.5 14.5,87.5C 13.8333,83.5 13.1667,79.5 12.5,75.5C 12.1667,75.5 11.8333,75.5 11.5,75.5C 10.5489,76.9187 10.2155,78.5853 10.5,80.5C 10.5,82.1667 10.5,83.8333 10.5,85.5C 10.5,86.1667 10.5,86.8333 10.5,87.5C 8.5,87.5 6.5,87.5 4.5,87.5C 4.81675,83.2984 4.48342,79.2984 3.5,75.5C 3.16667,75.5 2.83333,75.5 2.5,75.5C 2.5,74.1667 2.5,72.8333 2.5,71.5C 2.41483,70.0047 3.08149,69.0047 4.5,68.5C 7.58531,70.7401 10.752,70.7401 14,68.5C 15.7106,68.4393 17.044,69.1059 18,70.5C 20.6644,68.0446 23.4977,67.878 26.5,70C 27.2524,70.6708 27.5858,71.5041 27.5,72.5 Z M 10.5,85.5 C 10.5,83.8333 10.5,82.1667 10.5,80.5C 11.1174,80.3893 11.6174,80.056 12,79.5C 12.6667,81.8333 12.6667,84.1667 12,86.5C 11.6174,85.944 11.1174,85.6107 10.5,85.5 Z"></path></g>
<g><path style="opacity:1" fill="#ede5f6" d="M 44.5,73.5 C 44.5,76.1667 44.5,78.8333 44.5,81.5C 45.791,81.2627 46.791,81.596 47.5,82.5C 47.5,83.8333 47.5,85.1667 47.5,86.5C 46.8333,86.5 46.5,86.8333 46.5,87.5C 44.623,88.6246 42.7897,88.2912 41,86.5C 37.1508,89.3602 33.6508,89.0269 30.5,85.5C 30.5,83.1667 30.5,80.8333 30.5,78.5C 30.8333,77.5 31.5,76.8333 32.5,76.5C 33.1667,76.5 33.5,76.1667 33.5,75.5C 40.1667,75.1667 40.1667,74.8333 33.5,74.5C 33.5,73.8333 33.1667,73.5 32.5,73.5C 32.5,73.1667 32.5,72.8333 32.5,72.5C 32.5569,71.391 32.8902,70.391 33.5,69.5C 36.878,68.1379 40.2113,68.3046 43.5,70C 44.3366,71.0113 44.67,72.1779 44.5,73.5 Z M 36.5,80.5 C 36.56,79.9569 36.8933,79.6236 37.5,79.5C 38.5827,80.365 38.7494,81.365 38,82.5C 37.7216,81.5842 37.2216,80.9175 36.5,80.5 Z"></path></g>
<g><path style="opacity:1" fill="#efe7f7" d="M 82.5,81.5 C 83.3007,83.0418 83.634,84.7085 83.5,86.5C 81.917,88.8632 80.0836,88.8632 78,86.5C 74.682,88.9842 71.5153,88.9842 68.5,86.5C 68.5,85.8333 68.1667,85.5 67.5,85.5C 66.8902,84.609 66.5569,83.609 66.5,82.5C 66.5,81.5 66.5,80.5 66.5,79.5C 66.5,77.5 67.5,76.5 69.5,76.5C 71.5,76.5 73.5,76.5 75.5,76.5C 75.5,75.5 75.5,74.5 75.5,73.5C 73.901,73.2322 72.5676,73.5655 71.5,74.5C 70.8333,74.5 70.1667,74.5 69.5,74.5C 69.366,72.7085 69.6993,71.0418 70.5,69.5C 75.4138,67.8916 79.4138,69.0583 82.5,73C 81.1834,75.9365 81.1834,78.7699 82.5,81.5 Z M 73.5,79.5 C 75.9732,79.9473 76.1399,80.9473 74,82.5C 73.5172,81.552 73.3505,80.552 73.5,79.5 Z"></path></g>
<g><path style="opacity:1" fill="#e9dff4" d="M 101.5,81.5 C 100.89,82.391 100.557,83.391 100.5,84.5C 96.4515,89.2686 92.1181,89.6019 87.5,85.5C 87.0679,84.2905 86.4013,83.2905 85.5,82.5C 83.451,72.7305 87.2843,68.0638 97,68.5C 101.963,71.7372 103.463,76.0706 101.5,81.5 Z M 92.5,75.5 C 94.2926,75.8836 95.2926,77.0503 95.5,79C 95.3865,80.2798 94.7199,81.1131 93.5,81.5C 92.5344,79.604 92.2011,77.604 92.5,75.5 Z"></path></g>
<g><path style="opacity:0.023" fill="#6732b7" d="M 103.5,68.5 C 105.379,69.3414 107.379,69.6747 109.5,69.5C 107.712,70.6225 105.712,70.7891 103.5,70C 102.262,69.31 102.262,68.81 103.5,68.5 Z"></path></g>
<g><path style="opacity:0.102" fill="#6a37b8" d="M 33.5,69.5 C 32.8902,70.391 32.5569,71.391 32.5,72.5C 29.9845,71.1403 30.3178,70.1403 33.5,69.5 Z"></path></g>
<g><path style="opacity:0.486" fill="#8357c4" d="M 70.5,69.5 C 69.6993,71.0418 69.366,72.7085 69.5,74.5C 66.5237,72.1276 66.857,70.461 70.5,69.5 Z"></path></g>
<g><path style="opacity:0.475" fill="#8053c2" d="M 128.5,69.5 C 129.471,70.9621 129.138,72.2954 127.5,73.5C 127.5,72.5 127.5,71.5 127.5,70.5C 128.167,70.5 128.5,70.1667 128.5,69.5 Z"></path></g>
<g><path style="opacity:0.271" fill="#7140bb" d="M 2.5,71.5 C 2.5,72.8333 2.5,74.1667 2.5,75.5C -0.021948,73.9982 -0.021948,72.6649 2.5,71.5 Z"></path></g>
<g><path style="opacity:0.016" fill="#7342bc" d="M 154.5,69.5 C 154.938,69.4346 155.272,69.6012 155.5,70C 155.011,72.2092 154.011,74.0425 152.5,75.5C 152.875,73.3024 153.542,71.3024 154.5,69.5 Z"></path></g>
<g><path style="opacity:0.031" fill="#713fbb" d="M 136.5,70.5 C 136.483,74.5339 135.483,78.2006 133.5,81.5C 133.926,77.5732 134.926,73.9065 136.5,70.5 Z"></path></g>
<g><path style="opacity:0.527" fill="#9771cd" d="M 27.5,72.5 C 28.3227,75.977 28.8227,79.6437 29,83.5C 29.1981,81.6183 29.6981,79.9516 30.5,78.5C 30.5,80.8333 30.5,83.1667 30.5,85.5C 29.5,86.1667 28.5,86.8333 27.5,87.5C 27.5,82.5 27.5,77.5 27.5,72.5 Z"></path></g>
<g><path style="opacity:0.086" fill="#713fbc" d="M 32.5,73.5 C 33.1667,73.5 33.5,73.8333 33.5,74.5C 33.5,74.8333 33.5,75.1667 33.5,75.5C 33.5,76.1667 33.1667,76.5 32.5,76.5C 31.8843,75.2022 31.8843,74.2022 32.5,73.5 Z"></path></g>
<g><path style="opacity:0.729" fill="#baa0de" d="M 71.5,74.5 C 72.5676,73.5655 73.901,73.2322 75.5,73.5C 75.5,74.5 75.5,75.5 75.5,76.5C 73.5,76.5 71.5,76.5 69.5,76.5C 70.9516,75.6981 72.6183,75.1981 74.5,75C 73.552,74.5172 72.552,74.3505 71.5,74.5 Z"></path></g>
<g><path style="opacity:0.214" fill="#7849bf" d="M 3.5,75.5 C 4.48342,79.2984 4.81675,83.2984 4.5,87.5C 3.70291,88.4782 3.03625,88.1449 2.5,86.5C 3.3591,82.6917 3.69244,79.025 3.5,75.5 Z"></path></g>
<g><path style="opacity:0.432" fill="#8053c2" d="M 11.5,75.5 C 11.8333,76.8333 12.1667,76.8333 12.5,75.5C 13.1667,79.5 13.8333,83.5 14.5,87.5C 13.3684,88.3543 12.035,88.3543 10.5,87.5C 10.5,86.8333 10.5,86.1667 10.5,85.5C 11.1174,85.6107 11.6174,85.944 12,86.5C 12.6667,84.1667 12.6667,81.8333 12,79.5C 11.6174,80.056 11.1174,80.3893 10.5,80.5C 10.2155,78.5853 10.5489,76.9187 11.5,75.5 Z"></path></g>
<g><path style="opacity:0.028" fill="#5418af" d="M 19.5,76.5 C 20.1667,76.5 20.8333,76.5 21.5,76.5C 21.5,80.1667 21.5,83.8333 21.5,87.5C 20.8333,87.5 20.1667,87.5 19.5,87.5C 19.5,83.8333 19.5,80.1667 19.5,76.5 Z"></path></g>
<g><path style="opacity:0.563" fill="#a889d5" d="M 21.5,75.5 C 22.1667,79.5 22.8333,83.5 23.5,87.5C 22.8333,88.8333 22.1667,88.8333 21.5,87.5C 21.5,83.8333 21.5,80.1667 21.5,76.5C 21.5,76.1667 21.5,75.8333 21.5,75.5 Z"></path></g>
<g><path style="opacity:0.078" fill="#713fbb" d="M 117.5,74.5 C 118.715,75.779 118.382,76.779 116.5,77.5C 116.557,76.391 116.89,75.391 117.5,74.5 Z"></path></g>
<g><path style="opacity:0.104" fill="#6936b8" d="M 57.5,83.5 C 56.1667,83.8333 56.1667,84.1667 57.5,84.5C 58.4013,85.2905 59.0679,86.2905 59.5,87.5C 58.0357,86.5946 56.7024,86.5946 55.5,87.5C 55.3367,85.1432 55.5034,82.8098 56,80.5C 56.5133,81.5266 57.0133,82.5266 57.5,83.5 Z"></path></g>
<g><path style="opacity:0.157" fill="#703ebb" d="M 62.5,79.5 C 63.4584,79.9528 64.2917,80.6195 65,81.5C 65.2784,80.5842 65.7784,79.9175 66.5,79.5C 66.5,80.5 66.5,81.5 66.5,82.5C 65.6618,82.8417 65.3284,83.5084 65.5,84.5C 64.1103,83.1007 63.1103,81.4341 62.5,79.5 Z"></path></g>
<g><path style="opacity:0.427" fill="#8b60c7" d="M 85.5,82.5 C 86.4013,83.2905 87.0679,84.2905 87.5,85.5C 86.0413,85.4326 84.7079,85.7659 83.5,86.5C 83.634,84.7085 83.3007,83.0418 82.5,81.5C 82.4346,81.0618 82.6012,80.7284 83,80.5C 83.9147,81.3279 84.5814,82.3279 85,83.5C 85.3988,83.2716 85.5654,82.9382 85.5,82.5 Z"></path></g>
<g><path style="opacity:0.004" fill="#6b38b8" d="M 101.5,81.5 C 102.715,82.779 102.382,83.779 100.5,84.5C 100.557,83.391 100.89,82.391 101.5,81.5 Z"></path></g>
<g><path style="opacity:0.02" fill="#632eb5" d="M 65.5,85.5 C 66.1667,85.5 66.8333,85.5 67.5,85.5C 68.1667,85.5 68.5,85.8333 68.5,86.5C 67.8333,86.8333 67.1667,87.1667 66.5,87.5C 66.1667,86.8333 65.8333,86.1667 65.5,85.5 Z"></path></g>
<g><path style="opacity:0.015" fill="#5418af" d="M 123.5,85.5 C 123.328,86.4916 123.662,87.1583 124.5,87.5C 123.698,88.8847 123.031,88.718 122.5,87C 122.57,86.2352 122.903,85.7352 123.5,85.5 Z"></path></g>
<g><path style="opacity:0.845" fill="#aa88d6" d="M 142.5,83.5 C 142.5,84.8333 142.5,86.1667 142.5,87.5C 141.923,88.7733 141.257,88.7733 140.5,87.5C 140.994,85.9745 141.661,84.6412 142.5,83.5 Z"></path></g>
<g><path style="opacity:0.467" fill="#7a4bbf" d="M 106.5,84.5 C 106.263,85.791 106.596,86.791 107.5,87.5C 106.503,88.7125 105.503,88.5458 104.5,87C 105.066,86.0053 105.733,85.172 106.5,84.5 Z"></path></g>
</svg></svg></g></svg>